<svg version="1.1" id="Layer_1" xmlns="http://www.w3.org/2000/svg" xmlns:xlink="http://www.w3.org/1999/xlink" x="0px" y="0px"
	 width="100%" viewBox="0 0 225 225" enable-background="new 0 0 225 225" xml:space="preserve">
<path fill="none" opacity="1.000000" stroke="none" 
	d="
M130.000000,226.000000 
	C86.666672,226.000000 43.833340,226.000000 1.000006,226.000000 
	C1.000004,151.000000 1.000004,76.000015 1.000002,1.000016 
	C75.999992,1.000010 150.999985,1.000010 225.999969,1.000005 
	C225.999985,75.999985 225.999985,150.999969 226.000000,225.999969 
	C194.166672,226.000000 162.333328,226.000000 130.000000,226.000000 
M210.860931,128.190628 
	C210.586853,117.103363 211.644180,105.790825 209.812729,94.967079 
	C200.967987,42.695633 148.424377,6.874498 96.266716,16.855160 
	C30.216139,29.494312 -4.263130,99.693733 26.425005,159.052139 
	C53.689434,211.788254 122.721725,228.228485 170.643799,193.434250 
	C192.740921,177.390411 205.749512,155.740967 210.860931,128.190628 
z"/>
<path fill="#f5c320" opacity="1.000000" stroke="none" 
	d="
M210.764832,128.616119 
	C205.749512,155.740967 192.740921,177.390411 170.643799,193.434250 
	C122.721725,228.228485 53.689434,211.788254 26.425005,159.052139 
	C-4.263130,99.693733 30.216139,29.494312 96.266716,16.855160 
	C148.424377,6.874498 200.967987,42.695633 209.812729,94.967079 
	C211.644180,105.790825 210.586853,117.103363 210.764832,128.616119 
M122.808914,70.660484 
	C121.046532,69.409950 119.145096,68.313309 117.552910,66.874435 
	C114.863693,64.444160 112.634148,64.610863 109.641174,66.731560 
	C92.773788,78.683067 78.161934,92.808884 66.524612,109.967026 
	C64.754784,112.576469 64.765434,114.569191 66.581512,117.153282 
	C78.474220,134.075439 92.819656,148.484970 109.813385,160.299927 
	C112.558289,162.208298 114.557426,162.322418 117.364891,160.320190 
	C134.061661,148.412460 148.301239,134.122894 160.220993,117.439644 
	C162.314789,114.509109 162.353638,112.479370 160.245880,109.504768 
	C149.859329,94.846611 137.455795,82.180290 122.808914,70.660484 
M176.855927,87.190216 
	C178.204330,81.721046 180.029678,76.318947 180.810013,70.769890 
	C182.986267,55.294384 172.283478,44.114483 156.805450,46.616970 
	C147.592499,48.106510 138.669220,51.645222 129.772385,54.716564 
	C125.718414,56.116066 125.323685,59.320950 128.687561,61.850922 
	C142.469421,72.216263 154.501450,84.282700 164.993179,97.954834 
	C167.469330,101.181595 169.965363,100.862640 171.995331,97.290497 
	C173.710236,94.272758 175.039978,91.036140 176.855927,87.190216 
M100.132187,167.776138 
	C96.216469,164.255096 92.075333,160.951385 88.429604,157.170044 
	C79.447144,147.853485 70.640099,138.365524 61.871925,128.845734 
	C58.447792,125.128059 56.738010,124.737221 55.246246,128.390244 
	C50.783722,139.317993 46.766865,150.439896 46.942554,162.484039 
	C47.127815,175.183762 54.037060,182.100952 66.631088,180.298050 
	C76.848000,178.835434 86.772148,175.215652 96.742233,172.268753 
	C98.145004,171.854126 99.070038,169.823196 100.132187,167.776138 
M46.675617,67.517776 
	C46.937675,77.852341 49.947491,87.470901 54.423561,96.672432 
	C56.721203,101.395737 59.232128,101.649086 62.535007,97.367889 
	C72.656822,84.247986 84.209335,72.592079 97.335999,62.467926 
	C101.036186,59.614090 100.978157,56.403618 96.735161,54.960247 
	C87.373604,51.775661 77.894913,48.142151 68.187355,46.956020 
	C54.024002,45.225452 47.305439,52.185978 46.675617,67.517776 
M156.655579,180.219025 
	C157.654373,180.254257 158.653168,180.320480 159.651947,180.320068 
	C173.919449,180.314102 181.696884,173.089554 180.114929,158.989105 
	C179.023056,149.256821 175.488174,139.727722 172.401047,130.319107 
	C170.775665,125.365448 167.692276,125.251907 164.458679,129.523376 
	C154.441223,142.756149 142.871246,154.406570 129.666855,164.467773 
	C125.446976,167.683151 125.636032,170.665970 130.578873,172.426666 
	C138.829300,175.365524 147.332687,177.594177 156.655579,180.219025 
M81.672722,37.938858 
	C91.035713,41.676785 100.495621,45.195873 109.707405,49.275242 
	C112.794144,50.642181 114.937454,50.596260 117.980644,49.188862 
	C126.681717,45.164833 135.633743,41.682018 144.500122,38.017883 
	C146.534821,37.177021 148.621780,36.462631 150.908630,35.606174 
	C139.417023,22.814081 85.258766,23.272516 76.863457,35.988895 
	C78.244873,36.604900 79.572975,37.197128 81.672722,37.938858 
M27.259756,97.907951 
	C24.453125,116.244568 26.125496,133.886169 35.154316,150.527115 
	C36.577850,148.761856 37.225872,146.962921 37.956253,145.198090 
	C41.925610,135.606857 45.999409,126.057297 49.815186,116.405602 
	C50.451439,114.796257 50.567730,112.532700 49.951797,110.949883 
	C46.000584,100.796066 41.786583,90.744316 37.635216,80.668793 
	C37.044174,79.234322 36.324497,77.852844 35.249008,75.562187 
	C30.276937,82.608459 29.458508,90.068123 27.259756,97.907951 
M141.457901,188.079224 
	C133.203491,184.624893 124.877838,181.327576 116.732857,177.632065 
	C113.835258,176.317383 111.705536,176.560699 108.847023,177.848526 
	C99.953690,181.855118 90.834770,185.360413 81.809837,189.075912 
	C79.965088,189.835373 78.148529,190.663315 76.046959,191.578110 
	C89.247124,203.801544 141.033646,203.531189 150.071915,191.252640 
	C147.358719,190.208694 144.793213,189.221588 141.457901,188.079224 
M199.083847,131.561676 
	C202.981033,112.331665 201.041397,93.878883 192.199005,75.136772 
	C190.997742,77.022697 190.358292,77.751343 190.019653,78.600021 
	C185.786438,89.209312 181.504379,99.801331 177.493332,110.494728 
	C176.874954,112.143318 177.051605,114.476479 177.715195,116.155212 
	C181.319336,125.272850 185.137451,134.307816 189.017441,143.312851 
	C189.791962,145.110443 191.155212,146.654343 192.246994,148.315216 
	C192.871628,148.283585 193.496277,148.251938 194.120911,148.220306 
	C195.723816,142.943375 197.326736,137.666458 199.083847,131.561676 
z"/>
<path fill="none" opacity="1.000000" stroke="none" 
	d="
M123.089615,70.881226 
	C137.455795,82.180290 149.859329,94.846611 160.245880,109.504768 
	C162.353638,112.479370 162.314789,114.509109 160.220993,117.439644 
	C148.301239,134.122894 134.061661,148.412460 117.364891,160.320190 
	C114.557426,162.322418 112.558289,162.208298 109.813385,160.299927 
	C92.819656,148.484970 78.474220,134.075439 66.581512,117.153282 
	C64.765434,114.569191 64.754784,112.576469 66.524612,109.967026 
	C78.161934,92.808884 92.773788,78.683067 109.641174,66.731560 
	C112.634148,64.610863 114.863693,64.444160 117.552910,66.874435 
	C119.145096,68.313309 121.046532,69.409950 123.089615,70.881226 
z"/>
<path fill="none" opacity="1.000000" stroke="none" 
	d="
M176.698059,87.543304 
	C175.039978,91.036140 173.710236,94.272758 171.995331,97.290497 
	C169.965363,100.862640 167.469330,101.181595 164.993179,97.954834 
	C154.501450,84.282700 142.469421,72.216263 128.687561,61.850922 
	C125.323685,59.320950 125.718414,56.116066 129.772385,54.716564 
	C138.669220,51.645222 147.592499,48.106510 156.805450,46.616970 
	C172.283478,44.114483 182.986267,55.294384 180.810013,70.769890 
	C180.029678,76.318947 178.204330,81.721046 176.698059,87.543304 
z"/>
<path fill="none" opacity="1.000000" stroke="none" 
	d="
M100.174194,168.158279 
	C99.070038,169.823196 98.145004,171.854126 96.742233,172.268753 
	C86.772148,175.215652 76.848000,178.835434 66.631088,180.298050 
	C54.037060,182.100952 47.127815,175.183762 46.942554,162.484039 
	C46.766865,150.439896 50.783722,139.317993 55.246246,128.390244 
	C56.738010,124.737221 58.447792,125.128059 61.871925,128.845734 
	C70.640099,138.365524 79.447144,147.853485 88.429604,157.170044 
	C92.075333,160.951385 96.216469,164.255096 100.174194,168.158279 
z"/>
<path fill="none" opacity="1.000000" stroke="none" 
	d="
M46.675491,67.045090 
	C47.305439,52.185978 54.024002,45.225452 68.187355,46.956020 
	C77.894913,48.142151 87.373604,51.775661 96.735161,54.960247 
	C100.978157,56.403618 101.036186,59.614090 97.335999,62.467926 
	C84.209335,72.592079 72.656822,84.247986 62.535007,97.367889 
	C59.232128,101.649086 56.721203,101.395737 54.423561,96.672432 
	C49.947491,87.470901 46.937675,77.852341 46.675491,67.045090 
z"/>
<path fill="none" opacity="1.000000" stroke="none" 
	d="
M156.192581,180.170425 
	C147.332687,177.594177 138.829300,175.365524 130.578873,172.426666 
	C125.636032,170.665970 125.446976,167.683151 129.666855,164.467773 
	C142.871246,154.406570 154.441223,142.756149 164.458679,129.523376 
	C167.692276,125.251907 170.775665,125.365448 172.401047,130.319107 
	C175.488174,139.727722 179.023056,149.256821 180.114929,158.989105 
	C181.696884,173.089554 173.919449,180.314102 159.651947,180.320068 
	C158.653168,180.320480 157.654373,180.254257 156.192581,180.170425 
z"/>
<path fill="none" opacity="1.000000" stroke="none" 
	d="
M81.286896,37.864105 
	C79.572975,37.197128 78.244873,36.604900 76.863457,35.988895 
	C85.258766,23.272516 139.417023,22.814081 150.908630,35.606174 
	C148.621780,36.462631 146.534821,37.177021 144.500122,38.017883 
	C135.633743,41.682018 126.681717,45.164833 117.980644,49.188862 
	C114.937454,50.596260 112.794144,50.642181 109.707405,49.275242 
	C100.495621,45.195873 91.035713,41.676785 81.286896,37.864105 
z"/>
<path fill="none" opacity="1.000000" stroke="none" 
	d="
M27.343695,97.487915 
	C29.458508,90.068123 30.276937,82.608459 35.249008,75.562187 
	C36.324497,77.852844 37.044174,79.234322 37.635216,80.668793 
	C41.786583,90.744316 46.000584,100.796066 49.951797,110.949883 
	C50.567730,112.532700 50.451439,114.796257 49.815186,116.405602 
	C45.999409,126.057297 41.925610,135.606857 37.956253,145.198090 
	C37.225872,146.962921 36.577850,148.761856 35.154316,150.527115 
	C26.125496,133.886169 24.453125,116.244568 27.343695,97.487915 
z"/>
<path fill="none" opacity="1.000000" stroke="none" 
	d="
M141.842804,188.156860 
	C144.793213,189.221588 147.358719,190.208694 150.071915,191.252640 
	C141.033646,203.531189 89.247124,203.801544 76.046959,191.578110 
	C78.148529,190.663315 79.965088,189.835373 81.809837,189.075912 
	C90.834770,185.360413 99.953690,181.855118 108.847023,177.848526 
	C111.705536,176.560699 113.835258,176.317383 116.732857,177.632065 
	C124.877838,181.327576 133.203491,184.624893 141.842804,188.156860 
z"/>
<path fill="none" opacity="1.000000" stroke="none" 
	d="
M199.006744,131.975601 
	C197.326736,137.666458 195.723816,142.943375 194.120911,148.220306 
	C193.496277,148.251938 192.871628,148.283585 192.246994,148.315216 
	C191.155212,146.654343 189.791962,145.110443 189.017441,143.312851 
	C185.137451,134.307816 181.319336,125.272850 177.715195,116.155212 
	C177.051605,114.476479 176.874954,112.143318 177.493332,110.494728 
	C181.504379,99.801331 185.786438,89.209312 190.019653,78.600021 
	C190.358292,77.751343 190.997742,77.022697 192.199005,75.136772 
	C201.041397,93.878883 202.981033,112.331665 199.006744,131.975601 
z"/>
</svg>